<?xml version="1.0" encoding="UTF-8"?>
<svg width="116.06mm" height="17.627mm" version="1.1" viewBox="0 0 116.06 17.627" xmlns="http://www.w3.org/2000/svg"
  preserveAspectRatio="none">
  <g transform="translate(-42.759 -112.22)">
    <path
      d="m43.53 119.79c0.23812 0.0265 1.0319-0.0265 1.27-0.0529 0.23812 0 0.15875 0.0794 0.07937 0.0794-0.07937 0.0265-0.05292 0.18521-0.02646 0.21167 0.02646 0.0265-0.47625 0.23812-0.58208 0.34396-0.10583 0.10583 0 0.21166 0.10583 0.23812 0.07938 0.0265-0.07937 0.15875-0.37042 0.29104l-0.21167 0.13229c-0.02646 0.0265-0.02646 0.0265-0.02646 0.0265 0 0.15875 0.26458 0.29104 0.37042 0.29104s0.23812 0.21167 0.26458 0.29105c0.02646 0.0529 0.29104 0.0794 0.39688 0.0529 0.10583-0.0265 0.37042-0.13229 0.44979-0.15875 0.07937 0 0.15875 0.0529 0.15875 0.0794s-0.21167 0.0794-0.29104 0.10583c-0.07937 0.0265-0.15875-0.0265-0.15875-0.0529 0 0 0 0.0794-0.02646 0.21167h-0.02646c-0.37042 0.10583-0.74083 0.15875-1.1112 0.26458l-0.10583 0.0265c-0.10583 0.13229-0.05292 0.26459 0.10583 0.3175l0.13229-0.0529c0.10583-0.0265 0.26458-0.15875 0.3175-0.10584l0.50271 0.37042c0.50271-0.29104 1.5875-0.60854 1.8521-0.55563 0.23812 0.0529-0.02646 0.0794-0.21167 0.10584-0.18521 0-0.29104 0.0794-0.29104 0.10583 0.02646 0.0265-0.13229 0.13229-0.21167 0.15875-0.07937 0.0265 0.26458 0.13229 0.37042 0.15875 0.10583 0.0265-0.10583 0.18521-0.47625 0.37042h-0.29104-0.29104c-0.29104 0.0265-0.76729 0.23812-0.87312 0.3175-0.07938 0.0794-0.44979-0.13229-0.58208-0.0794-0.10583 0.0529-0.21167 0.34396-0.21167 0.42333 0 0.0794 0.66146 0.34396 0.89958 0.23813s0.34396-0.0529 0.3175 0c-0.02646 0.0529 0.3175 0.13229 0.44979 0.13229 0.13229 0 0.23812 0.0794 0.23812 0.10583 0 0.0265-0.52917 0.0529-0.74083 0.0529s-0.3175 0.0794-0.29104 0.10583c0.02646 0.0265-0.13229 0.1323-0.18521 0.15875-0.05292 0.0265 0.15875 0.0265 0.50271 0.0265l0.26458-0.0794 0.05292-0.0265c0.05292 0.0529 0.02646 0.26458 0 0.34396-0.02646 0.0794 0.21167 0.29104 0.29104 0.34396 0.10583 0.0529 0.34396-0.10584 0.42333-0.21167 0.07938-0.10583 0.71438-0.0529 0.97896 0 0.23812 0.0529-0.21167 0.37042-0.42333 0.39687-0.21167 0.0265-0.44979 0.23813-0.47625 0.3175-0.02646 0.0794 0.10583 0.1323 0.15875 0.1323 0.05292 0 0.13229-0.10584 0.13229-0.1323 0.02646-0.0264 0.05292-0.0264 0.05292-0.0264s-0.05292 0.0794-0.05292 0.10583c-0.02646 0.0265-0.05292 0.0265-0.05292 0.0265s0.07937 0.23812 0.13229 0.23812c0.07937-0.0265 0.55562-0.0529 0.71438-0.0529s0.47625 0.0794 0.71438 0.1852l0.26458-0.1852c0.23812-0.15875 0.58208-0.0529 0.87312-0.0529h0.07937c0.13229 0.0529-0.23812 0.635-0.42333 0.635-0.21167-0.0265-0.47625 0.13229-0.50271 0.15875-0.02646 0.0529-0.05292 0.42333-0.05292 0.55562 0 0.1323 0.34396 0.29105 0.76729 0.34396l0.29104-0.18521 0.3175-0.1852c0.3175 0 0.635 0.0265 0.66146 0.0529 0.02646 0.0265-0.18521 0.13229-0.26458 0.15875-0.07937 0.0265 0.10583 0.18521 0.21167 0.18521 0.07938 0 0.52917 0.18521 0.66146 0.13229 0.13229-0.0529 0.9525-0.3175 1.2171-0.34396 0.26458-0.0264 0.82021 0.21167 0.89958 0.34396 0.10583 0.13229-0.635 0.82021-0.9525 0.92604-0.3175 0.10584-0.21167 0.0794 0.26458-0.0265l0.39688-0.0529 0.42333-0.0529c0.50271-0.13229 0.50271 0.10584 0.37042 0.21167-0.13229 0.10583-0.23812 0.23812-0.21167 0.26458 0 0.0265 0.58208-0.0794 0.79375-0.13229 0.21167-0.0529 0.52917-0.21167 0.58208-0.21167 0.05292 0 0.10583 0.0529 0.10583 0.0794s-0.13229 0.0794-0.18521 0.10583c-0.05292 0.0265-0.10583-0.0265-0.10583-0.0529 0 0 0.02646 0.0794 0.05292 0.21166h0.02646c0.39688-0.0265 0.79375 0.0529 1.1906-0.13229l0.37042-0.18521c0.47625-0.0794 1.5081-0.10583 1.7462-0.10583 0.23812-0.0265 0.50271-0.0265 0.52917 0 0.02646 0.0265 0.07937 0.18521 0.10583 0.23812 0.02646 0.0529 0.10583 0.10584 0.21167 0.1323l0.05292-0.0265 0.52917-0.34396c0.60854-0.0529 1.7992-0.10583 2.0638-0.13229 0.26458-0.0265 0.74083-0.0794 0.82021-0.13229 0.10583-0.0529 0.23812-0.0265 0.26458 0.0529h0.05292c0.34396 0.0529 0.71438-0.0794 1.0583 0.18521 0.07938 0.0529 0.23812 0.0529 0.29104 0 0.18521-0.3175 0.18521-0.3175 0.18521-0.3175 0.26458 0.0529 1.2965 0.0794 2.2754 0.0529l0.89958-0.0265 0.44979-0.0265c0.47625-0.0265 0.87312-0.0794 0.87312-0.10583 0-0.0265-0.18521-0.10584-0.26458-0.13229-0.07937-0.0265 0.55562-0.1323 1.4023-0.23813h0.76729c0.52917 0 1.0583-0.15875 1.5875 0.13229 0.15875 0.0794 0.44979 0.10584 0.58208-0.0265l0.29104-0.29104c0.34396 0.0529 2.0902 0.13229 2.6458 0.13229s1.4817 0.0265 2.0638 0.0265l0.52917-0.0265h0.13229c0.07937-0.0794 0.58208-0.0794 0.71438-0.0529s4.1275-0.0794 5.6092-0.13229c1.4817-0.0529 3.0956-0.0529 3.2544 0s0.82021 0.13229 1.4817 0.15875l0.55562-0.18521 0.47625-0.18521c0.50271 0.10583 0.3175 0.34396 0.07937 0.42333-0.23812 0.0794-0.23812 0.15875-0.18521 0.18521 0.02646 0 1.4023-0.0265 3.0162-0.0794l3.466-0.1323c1.6404-0.0529 3.3867-0.26458 3.9158-0.47625l0.44979 0.15875c0.44979 0.15875 0.89958 0.1323 1.3494 0.1323 1.5346-0.0529 3.0692-0.10584 4.5773-0.1323h0.23812c0.26458 0.0529 0.60854 0.0529 0.79375 0.0265l0.18521-0.0529 0.0529-0.0265c0.0794-0.0265-0.0794-0.3175-0.1323-0.39688-0.0794-0.0794-0.29104-0.15875-0.47625-0.13229h-0.1852-0.1323c-0.15875-0.0265-0.26458-0.0794-0.26458-0.10583 0-0.0265 0.76729-0.0529 1.0848-0.0529 0.29104 0 0.44979 0.13229 0.42334 0.18521-0.0265 0.0529 0.0529 0.15875 0.1852 0.26458l0.1323 0.0529 0.26458 0.13229c0.3175 0.0265 0.9525 0.0794 1.1112 0.13229 0.15875 0.0529 0.92604 0.0794 1.7198 0.0794l1.4288-0.1058c0.79375-0.0794 2.4342-0.39687 2.8046-0.42333 0.39688-0.0265 3.8629-0.13229 5.0536-0.18521 1.1906-0.0265 2.4077-0.0265 2.5135 0 0.0794 0.0265 1.1642-0.21166 1.5346-0.18521 0.37042 0.0265 0.71438 0.26459 0.71438 0.3175 0 0.0265 2.0108 0.10584 2.7517 0.1323 0.74084 0 3.3867-0.0265 4.1275 0.0264 0.76729 0.0529 1.4552 0.10584 1.4817 0.10584 0.0265 0.0265 0.0529 0.15875 0.0529 0.21166 0 0.0529-0.21167 0.1323-0.29105 0.15875-0.0794 0.0265-0.13229 0.21167-0.10583 0.26459 0 0.0529 0.39688 0.10583 0.55563 0.10583s0 0.47625-0.0794 0.60854-0.0794 0.47625-0.0529 0.52917c0.0265 0.0794-0.26458 0.21167-0.37041 0.23812-0.10584 0.0265 0.0265 0.0794 0.26458 0.1323h0.21167 0.21166c0.23813 0.0529 0.66146 0.10583 0.74084 0.10583 0.0794-0.0265 0.34396-0.10583 0.58208-0.21167l0.0529 0.0794c0.18521 0.3175 0.29104-0.13229 0.39687-0.0265l0.15875 0.15875c0.21167 0 3.7306 0.0265 5.0271 0 1.2964-0.0265 3.0162 0.15875 3.2544 0.29104 0.23813 0.15875 0.92604-0.0794 1.1377-0.0265 0.18521 0.0529 0.3175-0.0265 0.3175-0.0794s-0.50271-0.15875-0.66146-0.21167c-0.15875-0.0529-0.26458-0.42333-0.26458-0.55562 0-0.1323-0.26459 0.0794-0.34396 0.13229-0.0529 0.0529-0.42333 0.0794-0.79375 0.0265h-0.29104c-0.3175 0-0.58209-0.3175-0.89959-0.18521h-0.0794l-0.52917 0.44979c-0.635-0.13229-0.60854-0.50271-0.42333-0.55563 0.21167-0.0529 0.55562-0.10583 0.60854-0.1852 0.0529-0.0529-1.5875-0.0529-2.249-0.0265-0.66146 0.0265-1.1906-0.15875-1.1906-0.21167 0-0.0529 0.52916-0.13229 0.71437-0.13229s0.60854-0.15875 0.68792-0.13229c0.0794 0.0265 0.3175 0.0265 0.52917-0.0265l-0.0265-0.39688v-0.10583c0.23812-0.15875 0.23812-0.37042 0.18521-0.39687-0.0529-0.0265-0.0794-0.21167-0.0529-0.26459 0-0.0529 0.44979-0.0529 0.58208 0.0265s0.29104-0.0265 0.29104-0.0794 1.0054 0 1.3494 0.0264c0.37042 0.0529 0.66146 0.21167 0.66146 0.26459 0 0.0529-0.15875 0.18521-0.21167 0.21166-0.0529 0.0265 0.23813 0.21167 0.68792 0.37042l0.39687-0.0529c0.29104-0.0529 0.29104-0.0529 0.29104-0.0529 0.3175 0.10583 1.0319 0.39687 1.2171 0.37041 0.18521 0 0.52916-0.21166 0.76729-0.42333l0.37042-0.26458c0.21166-0.13229 0.29104-0.10584 0.26458-0.0794-0.0265 0.0529 0.21167 0.29104 0.3175 0.34396 0.0794 0.0794 0.34396 0 0.42333-0.0529 0.0794-0.0529 0.13229-0.1852 0.10584-0.23812 0-0.0529-0.21167-0.13229-0.3175-0.15875-0.0794-0.0265 0.13229-0.3175 0.26458-0.29104 0.13229 0.0265 0.58208 0.18521 1.0054 0.34396l0.37041-0.37042 0.0265-0.0265c0.0265-0.0265 0.18521 0.23813 0.23813 0.34396 0.0529 0.10583 0.23812-0.0265 0.29104-0.0794 0.0529-0.0529 0.50271-0.23812 0.66146-0.29104 0.15875-0.0529 0.26458 0.29104 0.29104 0.44979 0 0.15875 0.26458 0.1323 0.3175 0.10584 0.0529-0.0265 0.29104 0.0794 0.34396 0.10583 0.0529 0.0265 0 0.23813-0.0265 0.26458-0.0265 0.0529 0.23812 0.0794 0.34396 0.0794 0.10583 0 0.29104-0.21167 0.34395-0.3175 0.0529-0.10583-0.23812-0.23813-0.34395-0.23813-0.10584 0-0.29105-0.3175-0.3175-0.44979-0.0529-0.13229 0.87312 0.23813 1.2171 0.26459 0.34396 0.0264 0.71437-0.18521 0.74083-0.26459 0.0265-0.0794-0.0529-0.26458-0.10583-0.3175-0.0529-0.0529-0.50271-0.10583-0.68792-0.0794-0.15875 0-0.37041-0.18521-0.39687-0.26459-0.0265-0.0794-0.21167-0.13229-0.26459-0.10583-0.0529 0-0.15875-0.18521-0.15875-0.21167 0-0.0529-0.58208-0.0529-0.79375-0.0529-0.1852 0-0.37041 0.18521-0.39687 0.23812 0 0.0529-0.39688 0.10584-0.52917 0.10584s-0.55562-0.23813-0.66146-0.34396c-0.13229-0.10584 0-0.50271 0.0794-0.60854 0.0794-0.10584 0.0529-0.3175-0.0265-0.37042-0.0529-0.0794 0.15875-0.21167 0.23813-0.23813 0.10583-0.0264-0.29105-0.23812-0.42334-0.13229-0.13229 0.10584-0.37041 0.0529-0.42333 0.0265-0.0529-0.0529-0.26458 0.15875-0.3175 0.21167-0.0529 0.0529-0.3175 0.0794-0.60854 0l-0.23813-0.0265c-0.21166-0.0265-0.21166-0.0265-0.21166-0.0265-0.23813 0.0265-0.74084 0.0265-0.84667 0.0265s0.13229-0.3175 0.26458-0.37042c0.13229-0.0794 0.0529-0.18521-0.15875-0.26458l-0.18521-0.10583-0.0794-0.0529c-0.0529-0.18521 0.34396-0.3175 0.47625-0.34396 0.13229 0 0.60854 0.23813 0.74083 0.3175 0.13229 0.0794-0.0265 0.21167-0.10583 0.23813-0.0794 0.0264-0.13229 0.1852-0.13229 0.23812 0 0.0529 0.66146 0.23813 0.89958 0.10583 0.23813-0.13229 1.0848-0.5027 1.3229-0.58208 0.23812-0.0794 0.60854 0.13229 0.66146 0.18521 0.0529 0.0794 0.44979 0.15875 0.87312 0.18521l0.34396-0.10584c0.21167-0.0794 0.44979-0.21166 0.68792-0.1852h0.0265c0.0265 0.0794-0.1852 0.1852-0.26458 0.21166-0.0794 0.0265-0.13229 0.18521-0.10583 0.21167 0 0.0265 0.21166 0.3175 0.29104 0.3175 0.0794 0.0265 0.3175 0.0794 0.37042 0.10583 0.0529 0.0265 0.66145 0.37042 0.89958 0.37042 0.23812 0 0.37042-0.10583 0.29104-0.23813l-0.0529-0.0794-0.0794-0.0794c-0.13229-0.15875 0.29104-0.29104 0.47625-0.29104 0.15875 0 0.29104-0.42333 0.29104-0.55562s0.3175-0.29104 0.42333-0.3175c0.10584-0.0265 0.0529-0.42333 0-0.55563-0.0529-0.13229-0.37041 0.0529-0.44979 0.15875-0.0794 0.1323-0.39687 0.18521-0.66146 0.15875l-0.13229 0.13229c-0.23812 0.23813-0.37041-0.10583-0.55562-0.0529-0.37042 0.10583-0.82021-0.0794-1.1642 0.10583l-0.39687 0.21167c-0.39688 0-0.82021-0.37042-0.87313-0.50271-0.0529-0.10583 0.15875-0.37042 0.23813-0.42333 0.0794-0.0529 0.10583-0.15875 0.0529-0.23813-0.0529-0.0794-0.44979-0.15875-0.76729 0l-0.21167 0.3175v0.0265c-0.0794-0.0265-0.0264-0.37042 0.0265-0.50271 0.0265-0.13229 0.39688-0.26458 0.55563-0.29104 0.13229-0.0265 0.23812-0.3175 0.23812-0.39687 0-0.0794 0.23813 0.23812 0.37042 0.3175 0.13229 0.0794 0.44979 0.23812 0.68792 0.37041l0.1852 0.15875 0.21167 0.15875c0.29104 0.10584 0.29104 0.37042 0.21167 0.42334-0.0794 0.0529 0.74083 0.0794 1.0319 0.0529 0.29104 0 0.60854-0.58208 0.47625-0.74083-0.13229-0.13229 0.3175-0.21167 0.50271-0.18521 0.18521 0.0265 0.50271 0 0.71438-0.0265l0.1852-0.0529c0.0794-0.0265 0.15875-0.1323 0.23813-0.18521l0.0265-0.0265c0-0.0529-0.0265-0.18521-0.0529-0.18521-0.0265-0.0265 0.0265-0.18521 0.0794-0.26458 0.0264-0.0794-0.47625 0-0.635 0.0265-0.15875 0.0264-0.55563-0.15875-0.635-0.23813-0.10584-0.0794-0.18521-0.3175-0.18521-0.39687 0-0.0794-0.39688-0.37042-0.55563-0.4498-0.15875-0.0794-1.0319 0.18521-1.3229-0.0264-0.26459-0.21167-0.21167-0.55563-0.10584-0.60855 0.10584-0.0529-0.52916-0.47625-0.79375-0.60854-0.26458-0.13229-0.44979-0.34396-0.42333-0.39687 0.0265-0.0529-0.82021-0.42334-1.1377-0.55563s-0.26458-0.29104 0.10583-0.39687l0.37042 0.18521c0.42333 0.23812 0.87313 0.52916 1.3494 0.37041h0.0264c0.0529 0.0529 0.0265 0.3175 0 0.39688-0.0264 0.0794 0.26459 0.34396 0.39688 0.39687 0.13229 0.0529 0.39687-0.0794 0.47625-0.18521 0.0794-0.0794 0.26458 0.0529 0.3175 0.1323 0.0529 0.0794-0.13229 0.1852-0.21167 0.21166-0.10583 0.0265 0.13229 0.18521 0.23813 0.21167 0.0794 0.0265 0.66146-0.15875 0.87312-0.15875 0.21167 0.0265 0.66146 0.39687 0.79375 0.52917 0.10584 0.13229 0.26459 0.1852 0.26459 0.15875 0.0265-0.0265 0.1852 0 0.39687 0.0529l0.18521 0.0794 0.0794 0.0265c0.0794 0.10583-0.23812 0.60854-0.39687 0.76729s0.26458 0.15875 0.92604 0.0265l0.55563-0.1323c0.0265 0 0.0794-0.0794 0.10583-0.13229l0.0265-0.0265c0.0265-0.0529-0.0265-0.1852-0.0529-0.21166-0.0265-0.0265 0.10583-0.10584 0.26458-0.15875l0.10584-0.0794c0.10583-0.0794 0.10583-0.0794 0.10583-0.0794 0.10583-0.15875 0.3175-0.13229 0.34396-0.10584 0.0265 0.0529 0.39687-0.79375 0.66146-0.8202 0.29104-0.0265-0.0265-0.21167-0.21167-0.26459-0.18521-0.0529-0.23812-0.29104-0.21167-0.37041 0.0529-0.0794-0.0264-0.26459-0.15875-0.42334l-0.10583 0.0265c-0.42333 0.0529-0.68792-0.34396-1.0054-0.58208-0.39687-0.3175-0.76729-0.635-1.2435-0.74084-0.13229-0.0264-0.13229-0.0264-0.13229-0.0264-0.13229-0.18521-0.58208-0.34396-0.97896-0.39688l-0.3175-0.26458c-0.34396-0.26459-0.66146-0.39688-1.0583-0.39688-0.18521 0-0.37042-0.0529-0.55563-0.0794-0.42333-0.0529-0.79375-0.29104-1.1906-0.39688-0.52917-0.13229-1.0848-0.3175-1.6404-0.18521l-0.13229 0.0265c-0.15875-0.0265-0.29104-0.10583-0.29104-0.10583 0-0.0265 0.21167-0.10583 0.29104-0.13229 0.0794-0.0265 0.15875-0.0794 0.13229-0.10584 0-0.0264-0.34396-0.0794-0.47625-0.0794-0.13229-0.0265 0.47625-0.0794 0.71438-0.18521 0.26458-0.10583 0.39687 0.0794 0.37041 0.15875-0.0264 0.10583 0.1323 0.18521 0.15875 0.18521 0.0265 0 0.1323-0.18521 0.1323-0.26458 0.0265-0.0794 0.15875-0.10584 0.3175-0.10584l0.10583 0.0794c0.50271 0.34396 1.0054 0.50271 1.561 0.42333 0.37042-0.0529 0.71438-0.0529 1.0583 0.15875 0.3175 0.21167 0.66146 0.13229 0.97896 0.15875l0.34396 0.0265c0.39688 0.0529 1.7198 0.26458 2.0902 0.42333 0.37042 0.18521 0.74083 0.10584 0.79375 0.0265 0.0265-0.10583-0.15875-0.18521-0.23813-0.21167-0.0794 0-0.37041-0.3175-0.66145-0.68791l-0.4498-0.0794c-0.37041-0.0529-0.37041-0.0529-0.37041-0.0529-0.37042-0.29105-0.71438-0.47625-0.74084-0.4498 0 0.0265-0.21166-0.23812-0.26458-0.3175-0.0529-0.0794-0.3175-0.23812-0.58208-0.37041l-0.18521-0.0529-0.92604-0.23812c-1.0319-0.23813-2.196-0.47625-2.5665-0.55563l-0.34396-0.0529c-0.37042-0.0529-0.74083-0.0529-1.1377-0.15875-0.635-0.15875-1.27-0.26458-1.9315-0.15875-0.10583 0.0265-0.21166-0.0529-0.34395-0.10583l-0.34396-0.10583c-0.87313 0.15875-1.3494 0.29104-1.0848 0.26458h0.15875 0.15875c0.1852 0.0265-0.10584 0.10583-0.66146 0.21167l-0.50271-0.13229-0.635-0.15875c-0.74083 0-2.831-0.10584-3.3867-0.10584-0.55562 0.0265-3.2808-0.13229-4.1275-0.10583-0.87312 0.0265-5.0271 0.15875-6.35 0.21167-1.3229 0.0529-5.8473 0.1852-7.1438 0.15875-1.2965-0.0265-2.9369-0.0265-3.5983-0.0265l-0.60854 0.0265h-0.0794c-0.15875 0-0.10583 0.26458-0.0529 0.29104 0.0264 0.0529 1.4023 0.0265 3.0427-0.0265 0 0 0.52917-0.0265 2.2754-0.0265h2.249c1.6404 0 4.8419 0.0794 5.5562 0.0265 0.71437-0.0529 3.2279-0.13229 3.9423-0.10583 0.71438 0.0264 3.175 0.1852 3.8894 0.13229 0.71437-0.0265 2.0373 0.0529 2.9633 0.18521l0.84667-0.0794 0.635-0.0529c0.79375 0.1323 1.0054 0.34396 0.47625 0.50271l-0.39688 0.10584-0.10583 0.0264c-0.10584 0-0.44979-0.0794-0.74084-0.1852h-0.29104c-0.55562 0-1.1112 0.10583-1.6404-0.1323l-0.0265-0.0265c-0.0529 0.0529-0.10584 0.21166-0.10584 0.26458 0 0.0529 0.1323 0.15875 0.18521 0.18521 0.0529 0.0265 0.0794 0.10583 0.0529 0.13229 0 0.0265-0.29104-0.0529-0.39688-0.0794-0.10583-0.0264-0.39687 0.0529-0.635 0.23813l-0.26458-0.18521c-0.0794-0.0529-0.21167-0.10583-0.26458-0.0794-0.29104 0.37041-0.55563 0.0794-0.84667 0.0264-0.21167-0.0264-0.21167-0.0264-0.21167-0.0264-0.26458 0.0794-0.74083 0.29104-0.87312 0.26458-0.13229-0.0265-0.92604-0.3175-1.1642-0.18521-0.23812 0.13229-0.52916 0.21167-0.635 0.15875l-0.13229 0.10583c-0.10583 0.10584-0.26458 0.10584-0.39687 0.15875l-0.89959 0.18521c-0.97896-0.15875-1.8256-0.29104-1.8785-0.29104l-0.0529-0.0265-0.55562-0.34396c-0.60854 0.21167-0.84667 0.42334-0.74083 0.4498 0.10583 0.0265 0.1852 0.10583 0.1852 0.13229 0 0.0265-0.15875 0.0529-0.37041 0.0529h-0.18521c-0.71438 0.0265-1.4288 0.0529-2.1431 0.0794l-0.68791 0.0265c-0.76729 0.0265-2.0108 0-2.7781-0.0529l-0.68791-0.0265c-0.21167 0-0.4498 0.0529-0.66146 0l-0.18521-0.0529c-0.21167 0.0529-0.55563 0.10583-0.79375 0.0794h-0.21167c-2.249 0.0794-4.4979 0.13229-6.7469 0.21167-0.3175 0-0.635 0.0265-0.9525 0.0265-0.34396 0-0.68792 0.0264-1.0319 0.0264-0.3175 0-0.635 0.0265-0.9525 0.0265-0.34396 0-0.71437-0.0794-1.0319 0.0529l-0.3175 0.13229c-0.29104-0.0794-1.0054-0.0265-1.1906 0s-1.0319 0.0794-1.905 0.13229l-0.79375 0.0265c-0.79375 0.0265-1.5875 0.0529-2.3812 0.0794-0.82021 0.0264-1.6404 0.0529-2.4342 0.0794s-1.5875 0.10583-2.3548 0.0529l-0.79375-0.0529c-0.84666 0.18521-2.8575 0.37042-4.4715 0.42333 0 0-7.1967 0.23813-12.277 0.39688-0.50271 0.0265-0.97896 0.0265-1.4817 0.0529h-0.15875c-0.07937 0.0529-0.66146 0.0529-0.79375 0.0529-0.13229-0.0265-1.5875 0.0265-3.2015 0.0529 0 0-4.2862 0.13229-7.911 0.26458-0.34396 0-0.74083-0.13229-1.0583 0.21167l-0.05292 0.0529c-0.10583-0.0265-0.635-0.34396-0.82021-0.29105-0.18521 0.0529-1.6669 0.1323-3.3073 0.18521l-10.001 0.3175c-1.6404 0.0529-3.175 0.10584-3.466 0.13229l-0.26458-0.15875c-0.23812-0.15875-0.60854 0.0265-0.92604 0.0529h-0.05292c-0.10583 0.10583-0.05292-0.26458-0.02646-0.39687 0.02646-0.1323-0.23812-0.21167-0.60854-0.18521l-0.29104 0.3175c-0.44979 0.47625-1.0054 0.74083-1.5081 0.79375l-1.0319 0.10583c-1.1377 0.10583-2.2225 0.23813-2.3812 0.23813l-0.15875-0.0265-0.29104-0.0265c-0.26458 0.23812-0.34396 0.635-0.29104 0.71437 0.05292 0.0794 1.0848-0.10583 1.4288-0.0529 0.34396 0.0529 0.26458 0.13229 0.13229 0.15875-0.13229 0.0265-0.21167 0.23812-0.21167 0.29104 0 0.0529 0.23812 0 0.47625-0.10583h0.21167 0.23812c0.26458 0.0529 0.635 0 0.68792-0.0265 0.05292 0 0.10583 0.0529 0.10583 0.0794s-0.13229 0.0794-0.18521 0.10584c-0.05292 0.0264-0.10583-0.0265-0.10583-0.0529 0 0-0.29104 0.50271-0.42333 0.34396-0.13229-0.15875-0.47625 0-0.60854-0.0265s-1.4023 0.10583-1.8521 0.18521c-0.44979 0.0794-0.79375 0.26458-0.79375 0.3175-0.05292 0.26458 0.55562 0.0529 0.76729 0.0794z"
      fill="#ffd400" stroke-width=".26458" />
  </g>
</svg>