<?xml version="1.0" standalone="no"?>
<!DOCTYPE svg PUBLIC "-//W3C//DTD SVG 20010904//EN"
 "http://www.w3.org/TR/2001/REC-SVG-20010904/DTD/svg10.dtd">
<svg version="1.0" xmlns="http://www.w3.org/2000/svg"
 width="1352.000000pt" height="1352.000000pt" viewBox="0 0 1352.000000 1352.000000"
 preserveAspectRatio="xMidYMid meet">
<metadata>
Created by potrace 1.14, written by Peter Selinger 2001-2017
</metadata>
<g transform="translate(0.000000,1352.000000) scale(0.100000,-0.100000)"
fill="#000000" stroke="none">
<path d="M435 10613 c-48 -12 -78 -23 -120 -46 -11 -6 -33 -17 -49 -26 -54
-27 -159 -142 -197 -216 -69 -134 -64 91 -64 -2755 0 -1422 4 -2613 8 -2648 5
-35 10 -71 12 -80 7 -40 18 -108 21 -127 1 -11 3 -21 4 -22 3 -4 5 -9 14 -48
4 -16 12 -46 17 -65 6 -19 12 -42 13 -50 4 -18 2 -14 56 -160 39 -105 144
-328 160 -340 4 -3 10 -15 14 -27 4 -13 12 -23 17 -23 5 0 9 -5 9 -11 0 -10
56 -98 70 -109 3 -3 15 -19 25 -36 66 -105 271 -319 418 -436 100 -80 259
-188 276 -188 6 0 11 -3 11 -7 0 -5 10 -13 23 -19 12 -6 49 -24 82 -41 33 -17
80 -40 105 -51 25 -11 66 -29 92 -40 27 -12 48 -19 48 -16 0 2 17 -4 38 -15
20 -10 40 -19 45 -20 4 -1 8 -1 10 -2 1 0 9 -2 17 -4 33 -8 166 -44 180 -49 8
-3 31 -7 50 -10 19 -3 46 -8 60 -11 14 -3 39 -7 55 -9 17 -2 59 -8 95 -12 84
-11 404 -11 495 -1 118 14 177 23 265 44 36 8 72 16 80 18 8 2 16 4 18 5 1 2
5 3 10 4 84 22 190 59 272 95 19 8 37 15 40 16 5 1 163 80 220 110 19 10 41
24 48 31 6 7 21 16 32 19 11 3 20 11 20 16 0 5 4 9 10 9 15 0 134 86 234 170
68 57 227 221 293 302 71 86 168 226 210 303 23 40 126 246 128 255 1 3 5 12
8 20 16 38 69 187 73 209 3 13 9 32 15 43 5 10 7 18 5 18 -3 0 -1 11 4 26 6
14 12 39 15 57 3 18 8 39 10 47 5 16 7 33 25 143 30 193 28 490 -5 692 -2 11
-4 20 -5 20 -1 0 -3 11 -4 25 -3 21 -9 54 -20 105 -1 6 -5 19 -9 30 -3 11 -8
31 -11 45 -14 77 -101 311 -156 421 -17 32 -29 61 -28 63 2 2 -4 12 -12 22 -9
11 -22 33 -30 49 -8 17 -23 39 -32 49 -10 11 -18 24 -18 28 0 10 -140 205
-179 251 -38 44 -251 258 -286 287 -16 14 -61 49 -100 78 -38 28 -75 56 -82
62 -7 5 -14 10 -16 10 -3 0 -32 18 -65 40 -33 22 -65 40 -71 40 -6 0 -11 4
-11 8 0 5 -16 14 -35 22 -19 8 -35 17 -35 22 0 4 -5 8 -11 8 -6 0 -52 20 -102
44 -51 24 -103 47 -117 51 -14 3 -38 13 -55 20 -36 16 -266 81 -315 89 -19 3
-71 12 -115 20 -44 8 -83 12 -87 9 -5 -2 -13 -1 -20 3 -38 24 -474 15 -593
-12 -11 -2 -36 -6 -55 -8 -19 -2 -57 -10 -85 -16 -69 -16 -73 -17 -135 -35
-30 -9 -59 -17 -65 -19 -26 -6 -62 -18 -80 -26 -11 -4 -56 -23 -100 -40 -44
-18 -125 -55 -180 -83 -55 -27 -102 -49 -105 -48 -2 0 -5 666 -5 1478 -1 813
-5 1496 -9 1518 -12 57 -69 179 -108 228 -42 54 -96 107 -108 107 -6 0 -10 4
-10 8 0 5 -12 15 -27 22 -16 8 -36 21 -45 29 -10 8 -18 11 -18 7 0 -3 -14 1
-32 10 -83 43 -244 55 -353 27z m2022 -4288 c26 -4 57 -9 68 -10 191 -29 454
-173 607 -332 98 -103 200 -262 248 -388 32 -82 61 -195 54 -206 -2 -4 0 -10
4 -13 10 -6 14 -56 15 -196 1 -113 -6 -175 -30 -275 -4 -16 -7 -32 -8 -35 -14
-74 -106 -266 -170 -356 -42 -60 -217 -244 -232 -244 -4 0 -20 -10 -34 -22
-32 -29 -51 -41 -122 -77 -31 -16 -63 -33 -70 -39 -6 -5 -50 -22 -97 -37 -47
-15 -92 -30 -100 -33 -8 -2 -26 -6 -40 -8 -31 -5 -65 -12 -65 -14 0 -4 -93
-11 -170 -12 -101 -1 -197 8 -270 26 -5 2 -23 6 -40 10 -133 34 -334 136 -435
222 -52 44 -167 166 -193 204 -17 25 -33 47 -36 50 -33 29 -132 245 -147 319
-3 13 -10 33 -15 43 -6 11 -8 22 -5 25 2 3 1 16 -5 30 -10 26 -22 149 -22 228
-1 121 31 301 70 393 8 20 15 38 14 40 -1 1 13 30 30 65 80 160 213 320 354
426 72 53 311 178 322 167 3 -3 11 -2 17 3 20 15 122 38 216 47 30 4 56 7 58
9 5 5 180 -3 229 -10z"/>
<path d="M2027 10364 c-2 -2 -51 -6 -108 -7 -111 -4 -184 -23 -274 -74 -62
-34 -147 -113 -184 -171 -17 -26 -34 -51 -38 -57 -30 -38 -70 -213 -66 -285
14 -249 163 -445 400 -527 l78 -26 625 -2 c713 -1 709 -1 833 59 81 40 148 91
198 154 38 47 96 156 103 193 3 13 5 24 6 24 5 0 11 51 14 120 5 126 -30 253
-98 350 -99 140 -304 251 -456 245 -8 0 -24 0 -35 0 -11 1 -26 1 -32 1 -7 0
-42 0 -78 0 -36 0 -73 -1 -82 -1 -10 0 -31 0 -48 1 -16 0 -37 0 -45 -1 -8 0
-24 0 -35 0 -11 1 -26 1 -32 1 -7 0 -42 0 -78 0 -36 0 -73 -1 -82 -1 -10 0
-31 0 -48 1 -16 0 -37 0 -45 -1 -8 0 -24 0 -35 0 -11 1 -26 1 -32 1 -102 -3
-143 -2 -150 2 -4 2 -17 1 -28 -3 -11 -4 -32 -4 -46 0 -15 4 -32 4 -39 0 -7
-5 -23 -4 -36 0 -12 5 -24 7 -27 4z"/>
<path d="M1839 9048 c-209 -34 -384 -184 -454 -390 -23 -70 -38 -225 -23 -235
5 -2 6 -8 3 -12 -13 -23 42 -175 90 -246 25 -38 105 -126 105 -117 0 4 4 2 8
-4 10 -15 90 -67 136 -87 98 -45 127 -47 792 -46 631 0 632 0 706 23 158 48
284 153 352 289 126 256 56 551 -171 721 -34 25 -69 46 -77 46 -8 0 -18 4 -21
10 -3 5 -38 19 -78 31 -71 22 -82 22 -698 23 -344 1 -646 -2 -670 -6z"/>
<path d="M11800 7480 c0 -3 -21 -5 -47 -5 -27 0 -68 -2 -93 -6 -25 -4 -67 -10
-95 -13 -27 -4 -57 -9 -65 -11 -8 -2 -30 -7 -47 -10 -69 -11 -162 -36 -248
-65 -49 -17 -94 -32 -100 -33 -5 -2 -19 -8 -30 -14 -11 -6 -24 -12 -30 -13
-46 -10 -268 -121 -340 -170 -24 -17 -46 -30 -50 -30 -3 0 -11 -5 -18 -10 -7
-6 -41 -32 -77 -58 -108 -78 -148 -112 -264 -227 -102 -101 -178 -185 -216
-239 -8 -12 -19 -26 -25 -33 -24 -29 -32 -39 -36 -48 -2 -6 -26 -44 -54 -85
-70 -107 -163 -291 -210 -420 -9 -25 -20 -54 -25 -65 -11 -27 -50 -164 -56
-195 -3 -14 -9 -41 -14 -60 -5 -19 -12 -55 -15 -80 -4 -24 -8 -47 -10 -50 -1
-3 -6 -36 -10 -75 -4 -38 -9 -88 -11 -110 -6 -56 -5 -288 1 -360 5 -57 8 -84
19 -165 8 -63 37 -194 58 -265 11 -38 21 -74 23 -80 2 -9 6 -21 22 -62 3 -10
7 -21 8 -25 2 -5 4 -10 5 -13 1 -3 3 -8 5 -12 3 -12 16 -43 46 -110 15 -35 25
-63 22 -63 -3 0 0 -7 7 -15 7 -8 25 -40 42 -71 42 -82 80 -147 95 -162 7 -7
13 -17 13 -22 0 -5 41 -64 91 -130 79 -105 257 -296 344 -370 58 -49 237 -180
246 -180 5 0 18 -8 29 -18 32 -27 223 -131 245 -133 6 0 16 -6 24 -12 7 -6 18
-12 25 -13 6 -1 31 -11 56 -22 40 -19 209 -78 249 -88 9 -2 43 -10 77 -18 68
-17 103 -24 154 -31 19 -3 44 -7 55 -10 133 -27 531 -27 680 1 129 24 229 46
295 65 25 7 48 13 53 15 4 1 9 3 12 4 3 1 8 3 13 5 4 1 16 5 27 9 44 17 50 19
55 21 121 33 472 222 560 302 14 13 28 23 32 23 13 0 88 83 122 135 32 50 71
137 82 185 3 14 7 63 8 110 7 170 -49 308 -174 431 -58 57 -188 131 -255 145
-57 12 -217 13 -238 3 -10 -6 -17 -7 -14 -1 17 26 -150 -49 -239 -109 -90 -60
-195 -120 -209 -119 -3 0 -18 -6 -34 -15 -107 -55 -278 -88 -451 -86 -134 1
-196 10 -330 46 -56 15 -246 103 -275 127 -5 5 -31 22 -56 38 -61 40 -194 170
-250 245 -156 209 -228 419 -231 680 -2 118 5 184 27 280 17 74 60 196 82 231
7 11 11 23 8 26 -3 3 1 11 10 18 8 7 15 19 15 26 0 8 5 14 10 14 6 0 10 5 10
11 0 23 97 147 180 229 132 132 273 219 450 277 41 14 84 27 95 29 11 2 31 6
45 9 79 18 257 23 360 11 89 -10 198 -33 215 -46 6 -4 31 -13 58 -20 26 -7 47
-16 47 -20 0 -4 6 -7 13 -7 17 0 149 -77 222 -128 110 -78 191 -106 320 -111
229 -8 436 115 534 317 22 46 43 98 47 114 13 61 12 216 -3 273 -17 66 -63
172 -75 172 -4 0 -8 6 -8 13 0 21 -106 124 -188 180 -85 60 -199 128 -277 167
-27 14 -51 28 -53 33 -2 4 -9 7 -15 7 -7 0 -46 14 -87 31 -41 18 -84 35 -95
39 -57 23 -110 42 -110 40 0 -2 -17 3 -65 18 -19 6 -47 13 -63 16 -15 3 -35 7
-45 10 -9 3 -28 7 -42 10 -14 3 -36 7 -49 10 -13 3 -49 8 -80 12 -31 3 -59 8
-62 10 -15 9 -389 22 -389 14z"/>
<path d="M7007 7474 c-1 -1 -38 -4 -82 -8 -44 -3 -96 -9 -115 -11 -19 -3 -52
-7 -72 -10 -57 -8 -175 -34 -248 -54 -25 -8 -49 -14 -55 -16 -5 -1 -18 -5 -27
-8 -10 -4 -26 -10 -35 -14 -10 -3 -22 -7 -28 -8 -5 0 -23 -7 -39 -13 -15 -7
-63 -27 -105 -44 -94 -39 -179 -83 -296 -155 -88 -53 -105 -65 -217 -150 -95
-72 -261 -233 -336 -325 -9 -11 -25 -29 -34 -40 -10 -10 -18 -22 -18 -26 0 -4
-9 -14 -20 -22 -11 -8 -20 -18 -20 -22 0 -10 -72 -112 -82 -116 -5 -2 -8 -9
-8 -15 0 -6 -6 -18 -14 -26 -19 -22 -116 -206 -149 -281 -18 -40 -39 -94 -38
-97 0 -2 -9 -24 -20 -50 -17 -40 -50 -145 -64 -203 -2 -8 -4 -15 -5 -15 -1 0
-3 -8 -5 -17 -2 -9 -8 -40 -15 -70 -6 -29 -14 -66 -16 -83 -3 -16 -7 -41 -9
-55 -2 -14 -8 -56 -12 -95 -10 -88 -11 -2049 -1 -2091 79 -328 393 -514 718
-424 45 12 129 52 158 73 56 43 145 142 175 195 20 34 34 62 32 62 -2 0 2 15
10 33 7 17 16 50 20 72 4 22 9 472 11 1000 1 528 5 974 8 990 3 17 8 44 12 60
3 17 8 37 9 45 1 8 5 22 7 30 3 8 13 40 22 71 23 78 94 220 152 304 64 93 204
230 299 293 148 100 308 163 480 190 53 8 290 8 340 -1 74 -12 100 -18 133
-28 18 -6 39 -12 45 -13 7 -2 26 -9 42 -15 17 -7 35 -14 40 -15 34 -6 221
-110 249 -138 10 -10 22 -18 27 -18 20 0 206 -197 252 -267 78 -118 156 -294
173 -390 2 -13 6 -33 9 -45 2 -13 7 -39 11 -58 3 -19 7 -474 8 -1010 2 -730 5
-980 14 -997 7 -12 12 -30 12 -40 0 -10 18 -54 41 -98 137 -269 467 -383 739
-256 30 14 57 29 58 33 2 4 9 8 17 8 25 0 175 160 175 188 0 6 4 12 9 12 5 0
11 8 14 18 3 9 14 42 26 73 22 60 33 135 31 209 0 25 -1 52 -1 60 0 77 0 798
0 808 3 65 3 93 2 127 -2 57 -2 171 0 243 1 20 1 55 0 77 -2 46 -3 434 -2 453
2 35 -5 147 -13 187 -3 17 -7 50 -10 75 -3 25 -8 56 -11 70 -3 14 -8 41 -11
60 -3 19 -12 58 -20 85 -8 28 -14 52 -14 55 0 3 -12 43 -27 90 -15 47 -27 87
-28 90 -2 6 -10 27 -33 85 -31 77 -148 301 -197 375 -113 175 -226 307 -391
460 -42 38 -124 107 -159 132 -5 4 -24 19 -41 33 -18 14 -37 25 -43 25 -6 0
-11 3 -11 8 0 4 -17 16 -37 27 -21 11 -40 23 -43 26 -13 16 -288 159 -306 159
-2 0 -23 8 -47 19 -23 10 -58 24 -77 31 -19 7 -44 16 -55 20 -35 14 -212 61
-267 70 -29 5 -64 12 -78 15 -14 3 -50 7 -80 10 -30 3 -68 7 -85 10 -28 5
-303 13 -308 9z"/>
</g>
</svg>
